<?xml version="1.0" standalone="no"?>
<!DOCTYPE svg PUBLIC "-//W3C//DTD SVG 20010904//EN"
 "http://www.w3.org/TR/2001/REC-SVG-20010904/DTD/svg10.dtd">
<svg version="1.0" xmlns="http://www.w3.org/2000/svg"
 width="128.000000pt" height="128.000000pt" viewBox="0 0 128.000000 128.000000"
 preserveAspectRatio="xMidYMid meet">

<g transform="translate(0.000000,128.000000) scale(0.100000,-0.100000)"
fill="currentColor" stroke="none">
<path d="M986 1129 c-93 -22 -243 -134 -325 -243 l-21 -29 -73 70 c-179 174
-331 223 -454 147 -68 -42 -108 -110 -108 -183 0 -97 25 -131 280 -391 127
-129 258 -263 290 -298 32 -34 62 -61 66 -60 21 8 474 457 515 511 96 127 140
261 115 354 -26 96 -157 152 -285 122z"/>
</g>
</svg>
